/* XPM */
static char *_____________[] = {
"16 16 54 1",
" 	c None",
".	c #D8E220",
"+	c #3771AB",
"@	c #2F6BA9",
"#	c #96BEAB",
"$	c #79C239",
"%	c #2B69A6",
"&	c #9EC5AB",
"*	c #69B92A",
"=	c #73BE37",
"-	c #3872AC",
";	c #6F9AC1",
">	c #72BF2E",
",	c #2966A5",
"'	c #91C484",
")	c #D7E11C",
"!	c #4275BE",
"~	c #92D150",
"{	c #EAB389",
"]	c #DAEE29",
"^	c #D8E221",
"/	c #99B3E3",
"(	c #68BA22",
"_	c #DF054B",
":	c #E94F87",
"<	c #DEEE42",
"[	c #9ABDBF",
"}	c #6EBC2D",
"|	c #E00F53",
"1	c #E01053",
"2	c #E7407D",
"3	c #DAF22D",
"4	c #A5C2BA",
"5	c #74BE38",
"6	c #6BBB2C",
"7	c #DF0A4F",
"8	c #E5A36F",
"9	c #D7E01C",
"0	c #B0CCCE",
"a	c #6DBC2B",
"b	c #72BC35",
"c	c #8CCD5D",
"d	c #DC7086",
"e	c #E00F52",
"f	c #E84A82",
"g	c #6ABA2A",
"h	c #9AC066",
"i	c #EA1461",
"j	c #E01054",
"k	c #E62875",
"l	c #83D758",
"m	c #EC2A70",
"n	c #E32965",
"o	c #E0094F",
"             .  ",
"           ...  ",
"          ....  ",
"  ++@#$  .....  ",
"  +%&*=  .....  ",
"  -;>==  .....  ",
"  ,'===  )....  ",
"  !~===  {]^..  ",
"  /(===  _:<^.  ",
"  [}===  |123.  ",
"  4}=56  ||789  ",
"  0abcde||||f   ",
"   ghij|||||k   ",
"   lmj||||||n   ",
"    o|||||||    ",
"      |||||     "};
