/* XPM */
static char *_____________[] = {
"32 32 106 2",
"  	c None",
". 	c #D8E220",
"+ 	c #3771AB",
"@ 	c #2967A5",
"# 	c #93AFDE",
"$ 	c #316DA8",
"% 	c #BCD1DA",
"& 	c #9DD469",
"* 	c #6ABA2A",
"= 	c #3871AB",
"- 	c #3D75AE",
"; 	c #D1E6CD",
"> 	c #6DBB2F",
", 	c #74BE38",
"' 	c #73BE37",
") 	c #3570AA",
"! 	c #D3E8CA",
"~ 	c #69B92A",
"{ 	c #2A68A5",
"] 	c #C7DBD9",
"^ 	c #6BBA2C",
"/ 	c #85A7D4",
"( 	c #85C74C",
"_ 	c #C4E3AF",
": 	c #72BD35",
"< 	c #87A8D6",
"[ 	c #7DC342",
"} 	c #316CA8",
"| 	c #B6D2C2",
"1 	c #6EBC30",
"2 	c #D8E21F",
"3 	c #306CA9",
"4 	c #BCE490",
"5 	c #F0FEA7",
"6 	c #739ACB",
"7 	c #8ACA53",
"8 	c #E21F5E",
"9 	c #F6B3D0",
"0 	c #E8F77A",
"a 	c #D6E012",
"b 	c #9DB7E0",
"c 	c #64B722",
"d 	c #E00F53",
"e 	c #DF084E",
"f 	c #E8447E",
"g 	c #F6F9CA",
"h 	c #D6E017",
"i 	c #A7C4CA",
"j 	c #E01054",
"k 	c #E01556",
"l 	c #F7E3CD",
"m 	c #D7E018",
"n 	c #A9CABA",
"o 	c #6FBC32",
"p 	c #E01053",
"q 	c #E00F52",
"r 	c #F5ECC6",
"s 	c #B1D2B4",
"t 	c #70BD33",
"u 	c #E42868",
"v 	c #E9FC81",
"w 	c #B2D4B1",
"x 	c #71BD34",
"y 	c #E00E53",
"z 	c #F291B6",
"A 	c #D6E116",
"B 	c #AFD0B3",
"C 	c #73BE38",
"D 	c #E00B50",
"E 	c #E9FF84",
"F 	c #D8E221",
"G 	c #A6C9B7",
"H 	c #70BC32",
"I 	c #69B928",
"J 	c #A8E68B",
"K 	c #E7B4B9",
"L 	c #DF0A50",
"M 	c #EDB096",
"N 	c #D7E11A",
"O 	c #AECCC5",
"P 	c #80CB4E",
"Q 	c #EABCC1",
"R 	c #E31C5E",
"S 	c #DF094F",
"T 	c #EF76A6",
"U 	c #D4E008",
"V 	c #D1DDF0",
"W 	c #66B824",
"X 	c #8FD767",
"Y 	c #F475A4",
"Z 	c #DE0148",
"` 	c #EC4F93",
" .	c #D6EA15",
"..	c #83CE53",
"+.	c #F36B9E",
"@.	c #E00C51",
"#.	c #EA488A",
"$.	c #96CF6A",
"%.	c #6AB929",
"&.	c #EAB1BA",
"*.	c #DE044B",
"=.	c #E95686",
"-.	c #A6E588",
";.	c #E21459",
">.	c #E32563",
",.	c #D8ACA4",
"                                                    .           ",
"                                                . . .           ",
"                                            . . . . .           ",
"                                          . . . . . .           ",
"                                        . . . . . . .           ",
"          + + + + + + @ #               . . . . . . .           ",
"          + + + + + $ % & *           . . . . . . . .           ",
"          + + + = - ; > , '           . . . . . . . .           ",
"          + + + ) ! ~ ' ' '         . . . . . . . . .           ",
"          + + { ] ^ ' ' ' '         . . . . . . . . .           ",
"          + + / ( ' ' ' ' '         . . . . . . . . .           ",
"          + { _ : ' ' ' ' '         . . . . . . . . .           ",
"          = < [ ' ' ' ' ' '         . . . . . . . . .           ",
"          } | 1 ' ' ' ' ' '         2 . . . . . . . .           ",
"          3 4 , ' ' ' ' ' '         5 2 . . . . . . .           ",
"          6 7 ' ' ' ' ' ' '         8 9 0 a . . . . .           ",
"          b c ' ' ' ' ' ' '         d e f g h . . . .           ",
"          i ^ ' ' ' ' ' ' '         d d j k l m . . .           ",
"          n o ' ' ' ' ' ' '         d d d p q r a . .           ",
"          s t ' ' ' ' ' ' '         d d d d j u v . .           ",
"          w x ' ' ' ' ' ' '         d d d d d y z A .           ",
"          B t ' ' ' ' ' C *         d d d d d d D E F           ",
"          G H ' ' ' C I J K         d d d d d d L M N           ",
"          O > ' ' C P Q R S p d d d d d d d d d j T U           ",
"          V W ' C X Y Z d d d d d d d d d d d d d `  .          ",
"            , C ..+.@.d d d d d d d d d d d d d d #.            ",
"            $.%.&.*.d d d d d d d d d d d d d d d =.            ",
"              -.;.d d d d d d d d d d d d d d d d >.            ",
"              ,.e d d d d d d d d d d d d d d d d               ",
"                d d d d d d d d d d d d d d d d                 ",
"                    d d d d d d d d d d d d d                   ",
"                            d d d d d d                         "};
