/* XPM */
static char *_____________[] = {
"64 64 222 2",
"  	c None",
". 	c #D8E220",
"+ 	c #3771AB",
"@ 	c #316DA8",
"# 	c #5E8CBB",
"$ 	c #DDE6F6",
"% 	c #E3F2D6",
"& 	c #A4D57D",
"* 	c #3872AB",
"= 	c #346FAA",
"- 	c #C1D2E6",
"; 	c #FBFFF1",
"> 	c #91CC62",
", 	c #6CBB2D",
"' 	c #73BF38",
") 	c #3670AB",
"! 	c #5788B9",
"~ 	c #FFFFFF",
"{ 	c #B5DD96",
"] 	c #6ABA2B",
"^ 	c #73BE38",
"/ 	c #73BE37",
"( 	c #326DA9",
"_ 	c #7AA1C6",
": 	c #87C753",
"< 	c #72BE36",
"[ 	c #8EAFCF",
"} 	c #F8FDEC",
"| 	c #75BF3A",
"1 	c #74BE38",
"2 	c #88ABCD",
"3 	c #F5FCE9",
"4 	c #70BD34",
"5 	c #6B96C0",
"6 	c #FEFFF4",
"7 	c #457BB1",
"8 	c #7CC243",
"9 	c #2B69A6",
"0 	c #EBEFFB",
"a 	c #9BD171",
"b 	c #92B2D1",
"c 	c #D6ECC3",
"d 	c #6EBB2F",
"e 	c #3A74AC",
"f 	c #73BE36",
"g 	c #356FAA",
"h 	c #B4CAE1",
"i 	c #B1DB90",
"j 	c #3E76AE",
"k 	c #6BBA2C",
"l 	c #A5BFDA",
"m 	c #72BD35",
"n 	c #3871AB",
"o 	c #759DC5",
"p 	c #D7EDC2",
"q 	c #70BD33",
"r 	c #336FAA",
"s 	c #C0D1E7",
"t 	c #9FD275",
"u 	c #D8E223",
"v 	c #2867A5",
"w 	c #6CBB2E",
"x 	c #E7ED74",
"y 	c #D5E012",
"z 	c #D8E221",
"A 	c #618FBD",
"B 	c #E5F5D4",
"C 	c #6EBC30",
"D 	c #FEFFF8",
"E 	c #E6ED6D",
"F 	c #D6E011",
"G 	c #97B5D4",
"H 	c #B4DC93",
"I 	c #DF0D51",
"J 	c #ED769D",
"K 	c #F9FBDD",
"L 	c #DCE538",
"M 	c #D8E21F",
"N 	c #CFDCEF",
"O 	c #94CE66",
"P 	c #E01155",
"Q 	c #E00F53",
"R 	c #DF0A50",
"S 	c #F3A4BD",
"T 	c #EBF08B",
"U 	c #D6E013",
"V 	c #2866A5",
"W 	c #6FBC32",
"X 	c #DF0A4F",
"Y 	c #E63871",
"Z 	c #FEF1F7",
"` 	c #F8FAD8",
" .	c #D9E222",
"..	c #3570AA",
"+.	c #68B928",
"@.	c #E01054",
"#.	c #DF074D",
"$.	c #F7BFD1",
"%.	c #FEFFFA",
"&.	c #DCE535",
"*.	c #5D8CBB",
"=.	c #E5F5D3",
"-.	c #6FBC31",
";.	c #DE0249",
">.	c #EF82A5",
",.	c #DEE63E",
"'.	c #779EC6",
").	c #CBE8B1",
"!.	c #71BD35",
"~.	c #EB608D",
"{.	c #DDE539",
"].	c #8DAECF",
"^.	c #BADF9B",
"/.	c #E00C51",
"(.	c #D9E328",
"_.	c #99B7D5",
":.	c #AFDB8D",
"<.	c #EF85A7",
"[.	c #FAFFE5",
"}.	c #D6E014",
"|.	c #AEC5DF",
"1.	c #A5D57E",
"2.	c #DE0149",
"3.	c #F7C6D7",
"4.	c #EDF195",
"5.	c #D8E21E",
"6.	c #B9CDE5",
"7.	c #9DD273",
"8.	c #DCE536",
"9.	c #BED0E7",
"0.	c #9AD06D",
"a.	c #EA5D8B",
"b.	c #F6FDCC",
"c.	c #D6E116",
"d.	c #C1D2E9",
"e.	c #97CF6B",
"f.	c #DE0047",
"g.	c #FDE0F2",
"h.	c #DEE743",
"i.	c #BACCE5",
"j.	c #E95585",
"k.	c #F2FAB3",
"l.	c #D7E21D",
"m.	c #B0C6E0",
"n.	c #A2D379",
"o.	c #6BBA2B",
"p.	c #DE0045",
"q.	c #FFF9FF",
"r.	c #D6E114",
"s.	c #A1BCD8",
"t.	c #AAD885",
"u.	c #70BD32",
"v.	c #AFD98C",
"w.	c #EFFFED",
"x.	c #F18BB0",
"y.	c #E4EC67",
"z.	c #8FB0D0",
"A.	c #B4DD94",
"B.	c #BEE2A3",
"C.	c #F39CB9",
"D.	c #E53770",
"E.	c #E63C73",
"F.	c #F0FBA6",
"G.	c #89ABCE",
"H.	c #C0E2A3",
"I.	c #A0D378",
"J.	c #F08BAC",
"K.	c #DF084E",
"L.	c #E00D52",
"M.	c #DD0045",
"N.	c #FBFFE6",
"O.	c #83A8CB",
"P.	c #D3ECBB",
"Q.	c #71BD34",
"R.	c #6EBC31",
"S.	c #D8F1C9",
"T.	c #FCCEE0",
"U.	c #E11859",
"V.	c #E00E52",
"W.	c #DF054C",
"X.	c #FBD6E8",
"Y.	c #D4DF0C",
"Z.	c #6E98C2",
"`.	c #EEF9DF",
" +	c #77C03C",
".+	c #F2FFF3",
"++	c #EE7CA1",
"@+	c #E00B50",
"#+	c #F6A9CD",
"$+	c #D7E11B",
"%+	c #68B927",
"&+	c #77C03D",
"*+	c #F9FFFC",
"=+	c #E84A7D",
"-+	c #F291BA",
";+	c #DBE42F",
">+	c #F6F7FF",
",+	c #F4FFF7",
"'+	c #E74378",
")+	c #F188B3",
"!+	c #DCE534",
"~+	c #93CD66",
"{+	c #6BBB2C",
"]+	c #E0F7D6",
"^+	c #EB6490",
"/+	c #F28AB5",
"(+	c #B4DC94",
"_+	c #A7D680",
":+	c #F9B5CD",
"<+	c #DF044B",
"[+	c #F39CBA",
"}+	c #C3E3A9",
"|+	c #71BD33",
"1+	c #F3A0BB",
"2+	c #BBE19F",
"3+	c #ED739B",
"4+	c #76BF3B",
"5+	c #6ABA2A",
"6+	c #DE034A",
"7+	c #97CF6A",
"8+	c #F6A2C1",
"9+	c #E00D51",
"                                                                                                                                ",
"                                                                                                      . . .                     ",
"                                                                                                  . . . . .                     ",
"                                                                                              . . . . . . .                     ",
"                                                                                            . . . . . . . .                     ",
"                                                                                        . . . . . . . . . .                     ",
"                                                                                      . . . . . . . . . . .                     ",
"                                                                                    . . . . . . . . . . . .                     ",
"                                                                                  . . . . . . . . . . . . .                     ",
"                                                                                . . . . . . . . . . . . . .                     ",
"                                                                                . . . . . . . . . . . . . .                     ",
"                    + + + + + + + + + + + + + @ # $ % &                       . . . . . . . . . . . . . . .                     ",
"                    + + + + + + + + + + + * = - ; > , '                     . . . . . . . . . . . . . . . .                     ",
"                    + + + + + + + + + + ) ! ~ { ] ^ / /                     . . . . . . . . . . . . . . . .                     ",
"                    + + + + + + + + + ( _ ~ : < / / / /                   . . . . . . . . . . . . . . . . .                     ",
"                    + + + + + + + + @ [ } | 1 / / / / /                   . . . . . . . . . . . . . . . . .                     ",
"                    + + + + + + + = 2 3 4 / / / / / / /                   . . . . . . . . . . . . . . . . .                     ",
"                    + + + + + + + 5 6 < / / / / / / / /                   . . . . . . . . . . . . . . . . .                     ",
"                    + + + + + + 7 ~ 8 1 / / / / / / / /                   . . . . . . . . . . . . . . . . .                     ",
"                    + + + + + 9 0 a ^ / / / / / / / / /                   . . . . . . . . . . . . . . . . .                     ",
"                    + + + + + b c d / / / / / / / / / /                   . . . . . . . . . . . . . . . . .                     ",
"                    + + + + e ~ f / / / / / / / / / / /                   . . . . . . . . . . . . . . . . .                     ",
"                    + + + g h i / / / / / / / / / / / /                   . . . . . . . . . . . . . . . . .                     ",
"                    + + + j ~ k / / / / / / / / / / / /                 . . . . . . . . . . . . . . . . . .                     ",
"                    + + ) l { / / / / / / / / / / / / /                 . . . . . . . . . . . . . . . . . .                     ",
"                    + + 9 ~ m / / / / / / / / / / / / /                 . . . . . . . . . . . . . . . . . .                     ",
"                    + n o p q / / / / / / / / / / / / /                 . . . . . . . . . . . . . . . . . .                     ",
"                    + r s t ^ / / / / / / / / / / / / /                 u . . . . . . . . . . . . . . . . .                     ",
"                    + v ~ w / / / / / / / / / / / / / /                 x y z . . . . . . . . . . . . . . .                     ",
"                    + A B C / / / / / / / / / / / / / /                 ~ D E F . . . . . . . . . . . . . .                     ",
"                    + G H / / / / / / / / / / / / / / /                 I J ~ K L M . . . . . . . . . . . .                     ",
"                    ( N O / / / / / / / / / / / / / / /                 P Q R S ~ T U . . . . . . . . . . .                     ",
"                    V ~ W / / / / / / / / / / / / / / /                 Q Q Q X Y Z `  .z . . . . . . . . .                     ",
"                    ..~ +./ / / / / / / / / / / / / / /                 Q Q Q Q @.#.$.%.&.z . . . . . . . .                     ",
"                    *.=.-./ / / / / / / / / / / / / / /                 Q Q Q Q Q Q ;.>.~ ,.z . . . . . . .                     ",
"                    '.).!./ / / / / / / / / / / / / / /                 Q Q Q Q Q Q Q X ~.~ {.z . . . . . .                     ",
"                    ].^./ / / / / / / / / / / / / / / /                 Q Q Q Q Q Q Q Q /.~.~ (.. . . . . .                     ",
"                    _.:.1 / / / / / / / / / / / / / / /                 Q Q Q Q Q Q Q Q Q X <.[.}.. . . . .                     ",
"                    |.1./ / / / / / / / / / / / / / / /                 Q Q Q Q Q Q Q Q Q Q 2.3.4.5.. . . .                     ",
"                    6.7./ / / / / / / / / / / / / / / /                 Q Q Q Q Q Q Q Q Q Q Q /.~ 8.. . . .                     ",
"                    9.0./ / / / / / / / / / / / / / / /                 Q Q Q Q Q Q Q Q Q Q Q @.a.b.c.. . .                     ",
"                    d.e./ / / / / / / / / / / / / / / /                 Q Q Q Q Q Q Q Q Q Q Q Q f.g.h.. . .                     ",
"                    i.a / / / / / / / / / / / / / / / /                 Q Q Q Q Q Q Q Q Q Q Q Q @.j.k.l.. .                     ",
"                    m.n./ / / / / / / / / / / / / / / o.                Q Q Q Q Q Q Q Q Q Q Q Q Q p.q.r.. .                     ",
"                    s.t.^ / / / / / / / / / / / < u.v.w.                Q Q Q Q Q Q Q Q Q Q Q Q Q Q x.y.. .                     ",
"                    z.A.1 / / / / / / / / / / -.B.~ C.D.;.            Q Q Q Q Q Q Q Q Q Q Q Q Q Q Q E.F.5..                     ",
"                    G.H.< / / / / / / / / , I.~ J.K.L.Q Q Q Q Q Q Q Q Q Q Q Q Q Q Q Q Q Q Q Q Q Q Q M.N.c..                     ",
"                    O.P.Q./ / / / / / / R.S.T.U.V.Q Q Q Q Q Q Q Q Q Q Q Q Q Q Q Q Q Q Q Q Q Q Q Q Q W.X.Y..                     ",
"                    Z.`.d / / / / / 1  +.+++2.Q Q Q Q Q Q Q Q Q Q Q Q Q Q Q Q Q Q Q Q Q Q Q Q Q Q Q @+#+$+                      ",
"                      ~ %+/ / / / / &+*+=+/.Q Q Q Q Q Q Q Q Q Q Q Q Q Q Q Q Q Q Q Q Q Q Q Q Q Q Q Q V.-+;+                      ",
"                      >+m / / / / q ,+'+Q Q Q Q Q Q Q Q Q Q Q Q Q Q Q Q Q Q Q Q Q Q Q Q Q Q Q Q Q Q Q )+!+                      ",
"                      ~ ~+/ / / {+]+^+V.Q Q Q Q Q Q Q Q Q Q Q Q Q Q Q Q Q Q Q Q Q Q Q Q Q Q Q Q Q Q Q /+                        ",
"                        (+^ / / _+:+<+Q Q Q Q Q Q Q Q Q Q Q Q Q Q Q Q Q Q Q Q Q Q Q Q Q Q Q Q Q Q Q L.[+                        ",
"                        }+u./ |+~ X Q Q Q Q Q Q Q Q Q Q Q Q Q Q Q Q Q Q Q Q Q Q Q Q Q Q Q Q Q Q Q Q X 1+                        ",
"                          m f 2+3+Q Q Q Q Q Q Q Q Q Q Q Q Q Q Q Q Q Q Q Q Q Q Q Q Q Q Q Q Q Q Q Q Q <+                          ",
"                          4+5+~ 6+Q Q Q Q Q Q Q Q Q Q Q Q Q Q Q Q Q Q Q Q Q Q Q Q Q Q Q Q Q Q Q Q Q @.                          ",
"                            7+8+9+Q Q Q Q Q Q Q Q Q Q Q Q Q Q Q Q Q Q Q Q Q Q Q Q Q Q Q Q Q Q Q Q Q                             ",
"                              a.Q Q Q Q Q Q Q Q Q Q Q Q Q Q Q Q Q Q Q Q Q Q Q Q Q Q Q Q Q Q Q Q Q                               ",
"                                Q Q Q Q Q Q Q Q Q Q Q Q Q Q Q Q Q Q Q Q Q Q Q Q Q Q Q Q Q Q Q Q Q                               ",
"                                  Q Q Q Q Q Q Q Q Q Q Q Q Q Q Q Q Q Q Q Q Q Q Q Q Q Q Q Q Q Q                                   ",
"                                      Q Q Q Q Q Q Q Q Q Q Q Q Q Q Q Q Q Q Q Q Q Q Q Q Q Q Q                                     ",
"                                          Q Q Q Q Q Q Q Q Q Q Q Q Q Q Q Q Q Q Q Q Q Q Q                                         ",
"                                                  Q Q Q Q Q Q Q Q Q Q Q Q Q Q Q Q Q                                             ",
"                                                                Q Q Q Q                                                         "};
